@startuml
'https://plantuml.com/class-diagram

abstract class AbstractList
abstract AbstractCollection
abstract Animal {
  +move()
}
interface Live
class Human
interface List
interface Collection
enum TimeUnit {
DAYS
HOURS
MINUTES
}

List <|-- AbstractList
Collection <|-- AbstractCollection

Collection <|- List
AbstractCollection <|- AbstractList
AbstractList <|-- ArrayList

class ArrayList {
Object[] elementData
size()
}
Live <|.. Animal : 实现
Animal <|--Human : 继承
Human *-- Brain : 组合
Human o-- Cellphone : 聚合
Human ..> Cigarette : 依赖
Animal <|-- Dog
@enduml